<svg xmlns="http://www.w3.org/2000/svg" width="20.073" height="18.4" viewBox="0 0 20.073 18.4">
  <path id="users" d="M19.728,18.982a10.22,10.22,0,0,0-6.1-5.139c1.258-1.028,2-2.967,2-5.506a4.141,4.141,0,0,0-4.313-4.267,4.618,4.618,0,0,0-.807.079A4.168,4.168,0,0,0,7.8,3.125,3.752,3.752,0,0,0,3.924,6.961c0,2.24.654,3.955,1.764,4.879A7.725,7.725,0,0,0,.345,16.23L0,17.024l.805.318a19.172,19.172,0,0,0,2.561.744,8.3,8.3,0,0,0-.469.9l-.345.794.805.318a23.954,23.954,0,0,0,7.955,1.431,23.954,23.954,0,0,0,7.955-1.431l.8-.318-.345-.794ZM13.954,8.339c0,2.87-1.012,4.652-2.64,4.652s-2.64-1.782-2.64-4.652a2.493,2.493,0,0,1,2.636-2.594,2.5,2.5,0,0,1,2.645,2.594ZM7.8,4.8a2.84,2.84,0,0,1,.8.138A3.949,3.949,0,0,0,7,8.339a10.55,10.55,0,0,0,.283,2.506C6.052,10.452,5.6,8.658,5.6,6.961A2.085,2.085,0,0,1,7.8,4.8Zm0,8.4a6.06,6.06,0,0,1,.607.052,3.814,3.814,0,0,0,1.277,1.036,9.286,9.286,0,0,0-4.712,2.4,21.318,21.318,0,0,1-2.664-.6A6.942,6.942,0,0,1,7.8,13.2Zm3.51,6.652a25.212,25.212,0,0,1-6.75-1.015A6.42,6.42,0,0,1,5.6,17.242a9.193,9.193,0,0,1,5.706-2.31,8.911,8.911,0,0,1,1.468.181,9.093,9.093,0,0,1,5,3.723,22.724,22.724,0,0,1-6.462,1.017Z" transform="translate(0 -3.125)" fill="#5d5c5c"/>
</svg>
