<svg xmlns="http://www.w3.org/2000/svg" xmlns:xlink="http://www.w3.org/1999/xlink" width="15.74" height="15.759" viewBox="0 0 15.74 15.759">
  <defs>
    <clipPath id="clip-path">
      <path id="path" d="M84.328-16a7.709,7.709,0,0,0-3.978,1.08,7.782,7.782,0,0,0-2.826,2.826,7.809,7.809,0,0,0-1.062,3.978,7.809,7.809,0,0,0,1.062,3.978A7.782,7.782,0,0,0,80.35-1.312,7.644,7.644,0,0,0,84.328-.241a7.877,7.877,0,0,0,3.978-1.071,7.782,7.782,0,0,0,2.826-2.826A7.877,7.877,0,0,0,92.2-8.116a7.643,7.643,0,0,0-1.071-3.978,7.782,7.782,0,0,0-2.826-2.826,7.809,7.809,0,0,0-3.978-1.062Zm4.824,4.086a6.118,6.118,0,0,1,.927,1.647A6.286,6.286,0,0,1,90.466-8.4a11.77,11.77,0,0,0-2.52-.288,9.844,9.844,0,0,0-1.782.162q-.18-.432-.414-.954a9.684,9.684,0,0,0,3.4-2.43Zm-4.824-2.34a6.019,6.019,0,0,1,2.043.351,6.179,6.179,0,0,1,1.791,1,8.024,8.024,0,0,1-3.024,2.16,20.209,20.209,0,0,0-2.124-3.366,6.2,6.2,0,0,1,1.314-.144Zm-2.718.63a17.974,17.974,0,0,1,2.2,3.348,15.362,15.362,0,0,1-2.7.54,16.6,16.6,0,0,1-2.16.144L78.37-9.61a5.983,5.983,0,0,1,1.179-2.367,6.1,6.1,0,0,1,2.061-1.647ZM78.19-8.116v-.09q.306.018.666.018A18.571,18.571,0,0,0,84.436-9q.2.432.36.81A9.584,9.584,0,0,0,81.34-6.136a10.139,10.139,0,0,0-1.692,1.98,6.169,6.169,0,0,1-1.08-1.836,6,6,0,0,1-.378-2.124Zm6.138,6.138a5.973,5.973,0,0,1-1.935-.315,6.416,6.416,0,0,1-1.719-.891A8.809,8.809,0,0,1,82.1-4.93a8.236,8.236,0,0,1,3.2-1.944,30.913,30.913,0,0,1,1.206,4.5,6.187,6.187,0,0,1-2.178.4ZM87.8-3.058A30.9,30.9,0,0,0,86.668-7.2a8.9,8.9,0,0,1,1.26-.09h.018A10.991,10.991,0,0,1,90.358-7a5.844,5.844,0,0,1-.891,2.241,6.242,6.242,0,0,1-1.665,1.7Z" transform="translate(0 16)" fill="none" clip-rule="evenodd"/>
    </clipPath>
    <clipPath id="clip-path-2">
      <path id="path-2" data-name="path" d="M-1133.346,188.184h1440v-3843h-1440Z" transform="translate(0 16)" fill="none"/>
    </clipPath>
  </defs>
  <g id="group" transform="translate(-76.463)" clip-path="url(#clip-path)">
    <g id="group-2" data-name="group" clip-path="url(#clip-path-2)">
      <path id="path-3" data-name="path" d="M71.462-21H97.2V4.759H71.462Z" transform="translate(0 16)" fill="#fff"/>
    </g>
  </g>
</svg>
