<svg xmlns="http://www.w3.org/2000/svg" width="197.126" height="30" viewBox="0 0 197.126 30">
  <g id="Group_58" data-name="Group 58" transform="translate(-100 -1591)">
    <g id="Group_57" data-name="Group 57" transform="translate(100 1591)">
      <g id="Group_55" data-name="Group 55" transform="translate(0 0)">
        <path id="Path_46" data-name="Path 46" d="M776.174,271.031l-8.034-4.464v22.106l-.945.552-.1-.058-.013-.008-1.5-.874-6.59-3.841-2.841-1.655V270.1l1.019-.6,1.056-.615.766-.444,4.171-2.434v-2.22l-4.171,2.434-4.758,2.772v14.9l4.758,2.775,6.827,3.979,1.262.734.013.008.1.058.945-.552,1.917-1.117v-7.5l6.117-2.96Zm-1.917,7.078-4.2,2.033V269.824l4.2,2.337Z" transform="translate(-754.237 -261.442)" fill="#fff"/>
        <path id="Path_47" data-name="Path 47" d="M826.4,226.558l-.011.005-1.046.61-1.917,1.117v19.563l-4.09-2.273V235.046l-1.917,1.117V246.71l.779.43,7.144,3.968V229.391l1.046-.61.011-.008,11.041,6.439V247.9l-7.123,4.153v2.22l9.04-5.272v-14.9Z" transform="translate(-813.438 -226.558)" fill="#fff"/>
      </g>
    </g>
    <g id="Group_56" data-name="Group 56" transform="translate(135.985 1600.83)">
      <path id="Path_48" data-name="Path 48" d="M487.133,775.671v7.42c0,2.383-1.439,3.9-3.443,3.9s-3.445-1.514-3.445-3.9v-7.42H478.73V783.2a4.965,4.965,0,1,0,9.917,0v-7.534Z" transform="translate(-478.73 -775.256)" fill="#fff"/>
      <path id="Path_49" data-name="Path 49" d="M580.21,773.607v9.216l-8.781-9.631v13.02h1.514V777l8.781,9.631v-13.02Z" transform="translate(-555.91 -773.192)" fill="#fff"/>
      <path id="Path_50" data-name="Path 50" d="M658.258,775.671v1.364h3.614v11.241h1.514V777.035H667v-1.364Z" transform="translate(-628.203 -775.256)" fill="#fff"/>
      <path id="Path_51" data-name="Path 51" d="M726.027,773.192l-6.056,13.02h1.667l1.854-4.07h.011l.625-1.361h-.011l1.632-3.539.278-.607,1.911,4.145.62,1.361h0l1.854,4.07h1.667Z" transform="translate(-679.585 -773.192)" fill="#fff"/>
      <path id="Path_52" data-name="Path 52" d="M818.924,775.671h-3.992v12.6h1.514V782.92h2.478a3.634,3.634,0,1,0,0-7.249Zm-.018,5.906h-2.46v-4.542h2.46a2.275,2.275,0,1,1,0,4.542Z" transform="translate(-758.648 -775.256)" fill="#fff"/>
      <path id="Path_53" data-name="Path 53" d="M894.217,775.671h-3.993v12.6h1.514V782.92h2.478a3.634,3.634,0,1,0,0-7.249Zm-.018,5.906h-2.46v-4.542h2.46a2.275,2.275,0,1,1,0,4.542Z" transform="translate(-821.335 -775.256)" fill="#fff"/>
      <path id="Path_54" data-name="Path 54" d="M965.517,775.671v1.364h7.417v-1.364Zm0,5.545v1.364h7.192v-1.364Zm0,5.7v1.363h7.417v-1.363Z" transform="translate(-884.023 -775.256)" fill="#fff"/>
      <path id="Path_55" data-name="Path 55" d="M1045.308,775.671h-4.05v12.6h4.05a6.3,6.3,0,1,0,0-12.6Zm-.228,11.241h-2.307v-9.878h2.307a4.94,4.94,0,1,1,0,9.878Z" transform="translate(-947.085 -775.256)" fill="#fff"/>
      <path id="Path_56" data-name="Path 56" d="M1180,775.671H1176v12.6h1.514V782.92H1180a3.634,3.634,0,1,0,0-7.249Zm-.018,5.906h-2.46v-4.542h2.46a2.275,2.275,0,1,1,0,4.542Z" transform="translate(-1059.272 -775.256)" fill="#fff"/>
      <path id="Path_57" data-name="Path 57" d="M1248.112,784.237a4.858,4.858,0,0,1-3.956,2,5.015,5.015,0,0,1,0-10.028,4.858,4.858,0,0,1,3.956,2,4.935,4.935,0,0,1,.381.612.565.565,0,0,0,.994,0,4.891,4.891,0,0,1,.381-.612,6.21,6.21,0,0,0-.878-1.27,6.453,6.453,0,1,0,0,8.565,6.2,6.2,0,0,0,.878-1.27,4.9,4.9,0,0,1-.381-.612.565.565,0,0,0-.994,0A4.948,4.948,0,0,1,1248.112,784.237Z" transform="translate(-1110.642 -774.507)" fill="#fff"/>
      <path id="Path_58" data-name="Path 58" d="M1305.833,774.777a6.438,6.438,0,0,0-5.076,2.166,6.2,6.2,0,0,0-.878,1.27,4.925,4.925,0,0,1,.284.437.681.681,0,0,0,1.187,0,5.128,5.128,0,1,1,0,5.15.681.681,0,0,0-1.187,0,4.924,4.924,0,0,1-.284.437,6.2,6.2,0,0,0,.878,1.27,6.455,6.455,0,1,0,5.076-10.731Z" transform="translate(-1162.41 -774.508)" fill="#fff"/>
      <path id="Path_59" data-name="Path 59" d="M1398.466,786.912V775.671h-1.516v12.6h7.42v-1.363Z" transform="translate(-1243.23 -775.256)" fill="#fff"/>
    </g>
  </g>
</svg>
