<svg xmlns="http://www.w3.org/2000/svg" width="12.333" height="12" viewBox="0 0 12.333 12">
  <g id="user" transform="translate(0 -0.102)">
    <path id="Path_16" data-name="Path 16" d="M12.1,214.621l-1.871-.272-.836-1.694a.278.278,0,0,0-.5,0l-.836,1.694-.175.025A4.631,4.631,0,0,0,4.7,213.13H4.695a4.608,4.608,0,0,0-3.326,1.4A4.954,4.954,0,0,0,0,218.025a.287.287,0,0,0,.081.2.275.275,0,0,0,.2.08l6.789-.014a.276.276,0,0,0,.111.261.283.283,0,0,0,.292.022l1.671-.88,1.672.88a.286.286,0,0,0,.294-.022.278.278,0,0,0,.111-.272l-.319-1.863,1.352-1.319a.279.279,0,0,0,.069-.286A.273.273,0,0,0,12.1,214.621ZM7.16,217.734l-6.6.014a4.342,4.342,0,0,1,1.205-2.829,4.049,4.049,0,0,1,2.929-1.227H4.7a4.1,4.1,0,0,1,2.44.794l-.958.139a.277.277,0,0,0-.225.189.281.281,0,0,0,.069.286l1.352,1.319Zm3.246-1.616a.28.28,0,0,0-.08.247l.25,1.452-1.3-.686a.275.275,0,0,0-.131-.031.309.309,0,0,0-.13.031l-1.3.686.25-1.452a.275.275,0,0,0-.08-.247L6.819,215.09l1.458-.211a.271.271,0,0,0,.208-.153l.652-1.322.652,1.322a.28.28,0,0,0,.208.153l1.458.211Zm0,0" transform="translate(0 -206.501)" fill="#5d5c5c"/>
    <path id="Path_17" data-name="Path 17" d="M66.536,5.971A2.935,2.935,0,1,0,63.6,3.036,2.935,2.935,0,0,0,66.536,5.971Zm0-5.314a2.379,2.379,0,1,1-2.379,2.379A2.379,2.379,0,0,1,66.536.657Zm0,0" transform="translate(-61.836)" fill="#5d5c5c"/>
  </g>
</svg>
