<svg xmlns="http://www.w3.org/2000/svg" width="10.08" height="12" viewBox="0 0 10.08 12">
  <g id="professional-profile-with-image" transform="translate(-17.492)">
    <g id="Group_18" data-name="Group 18" transform="translate(17.492)">
      <path id="Path_23" data-name="Path 23" d="M23.372,0h-7.68a1.2,1.2,0,0,0-1.2,1.2v9.6a1.2,1.2,0,0,0,1.2,1.2h7.68a1.2,1.2,0,0,0,1.2-1.2V1.2A1.2,1.2,0,0,0,23.372,0Zm.72,10.8a.721.721,0,0,1-.72.72h-7.68a.721.721,0,0,1-.72-.72V1.2a.721.721,0,0,1,.72-.72h7.68a.721.721,0,0,1,.72.72v9.6h0Z" transform="translate(-14.492)" fill="#5d5c5c"/>
      <path id="Path_24" data-name="Path 24" d="M54.341,79.212H49.28a.221.221,0,0,0,0,.441h5.061a.221.221,0,0,0,0-.441Z" transform="translate(-46.77 -73.965)" fill="#5d5c5c"/>
      <path id="Path_25" data-name="Path 25" d="M54.341,94.386H49.28a.221.221,0,0,0,0,.441h5.061a.221.221,0,0,0,0-.441Z" transform="translate(-46.77 -88.134)" fill="#5d5c5c"/>
      <path id="Path_26" data-name="Path 26" d="M54.341,109.555H49.28a.221.221,0,0,0,0,.441h5.061a.221.221,0,0,0,0-.441Z" transform="translate(-46.77 -102.298)" fill="#5d5c5c"/>
      <path id="Path_27" data-name="Path 27" d="M90.008,124.728H87.477a.221.221,0,0,0,0,.441h2.531a.221.221,0,0,0,0-.441Z" transform="translate(-82.437 -116.466)" fill="#5d5c5c"/>
      <path id="Path_28" data-name="Path 28" d="M100.711,154.693H98.939a.22.22,0,0,0,0,.441h1.772a.22.22,0,0,0,0-.441Z" transform="translate(-93.14 -144.447)" fill="#5d5c5c"/>
      <path id="Path_29" data-name="Path 29" d="M52.049,24.578a1.449,1.449,0,0,0-1.129-1.144,1.1,1.1,0,0,0,.458-.866.827.827,0,1,0-1.655,0,1.105,1.105,0,0,0,.457.866,1.449,1.449,0,0,0-1.128,1.144C49.053,25.071,52.049,25.071,52.049,24.578Zm-1.565-.9h0l-.137-.157a.585.585,0,0,0,.415,0l-.137.157h0l.354.854-.42.419-.42-.419Z" transform="translate(-46.763 -20.3)" fill="#5d5c5c"/>
    </g>
  </g>
</svg>
