<svg xmlns="http://www.w3.org/2000/svg" width="22" height="6" viewBox="0 0 22 6">
  <g id="Group_94" data-name="Group 94" transform="translate(-1161.999 -325)">
    <path id="Path_66" data-name="Path 66" d="M33.682,30.682a3,3,0,1,0,3,3A2.946,2.946,0,0,0,33.682,30.682Zm0,4a1,1,0,1,1,1-1A.945.945,0,0,1,33.682,34.682Z" transform="translate(1139.318 294.318)"/>
    <path id="Path_67" data-name="Path 67" d="M60.955,30.682a3,3,0,1,0,3,3A2.946,2.946,0,0,0,60.955,30.682Zm0,4a1,1,0,1,1,1-1A.945.945,0,0,1,60.955,34.682Z" transform="translate(1120.045 294.318)"/>
    <path id="Path_68" data-name="Path 68" d="M6.409,30.682a3,3,0,1,0,0,6,3,3,0,1,0,0-6Zm0,4a1,1,0,0,1,0-2,1,1,0,0,1,0,2Z" transform="translate(1158.59 294.318)"/>
  </g>
</svg>
