<svg id="Layer_1" data-name="Layer 1" xmlns="http://www.w3.org/2000/svg" xmlns:xlink="http://www.w3.org/1999/xlink" viewBox="0 0 465 380.8"><defs><style>.cls-1{fill:url(#linear-gradient);}</style><linearGradient id="linear-gradient" x1="232.5" y1="46.98" x2="232.5" y2="333.82" gradientUnits="userSpaceOnUse"><stop offset="0" stop-color="#f3d22f"/><stop offset="0.07" stop-color="#e4cf37"/><stop offset="0.22" stop-color="#bec94c"/><stop offset="0.41" stop-color="#80be6e"/><stop offset="0.65" stop-color="#2baf9c"/><stop offset="0.75" stop-color="#06a9b0"/><stop offset="1" stop-color="#11868b"/></linearGradient></defs><title>Contest banner image placeholder</title><path class="cls-1" d="M358.52,76.32H312.8V70.65h2.1a7.45,7.45,0,0,0,7.45-7.45V54.43A7.45,7.45,0,0,0,314.9,47H150.1a7.45,7.45,0,0,0-7.45,7.45V63.2a7.45,7.45,0,0,0,7.45,7.45h2.1v5.67H106.48A7.44,7.44,0,0,0,99,83.77v49.47c0,34.69,17.1,61.51,49.46,77.54A136.46,136.46,0,0,0,175,220.49c.77.79,1.54,1.59,2.34,2.35a77.53,77.53,0,0,0,32,18.18s-7.06,38.77-11,55.45a37.69,37.69,0,0,0-32.62,37.35H299.34a37.69,37.69,0,0,0-32.62-37.35c-3.9-16.68-11-55.45-11-55.45a77.53,77.53,0,0,0,31.95-18.18c.8-.76,1.57-1.56,2.34-2.35a136.7,136.7,0,0,0,26.46-9.71c32.36-16,49.46-42.85,49.46-77.54V83.77A7.44,7.44,0,0,0,358.52,76.32ZM155.1,197.43c-27.32-13.54-41.17-35.14-41.17-64.19v-42H152.2v67.49c0,15.38,3,29.33,8.69,41.38C159,199.27,157,198.39,155.1,197.43Zm102.11-25.06-24.71-13-24.71,13,4.72-27.52-20-19.49,27.63-4,12.36-25,12.36,25,27.63,4-20,19.49Zm93.86-39.13c0,28.91-13.72,50.45-40.8,64-2.06,1-4.12,2-6.16,2.83,5.72-12.05,8.69-26,8.69-41.37V91.22h38.27Z"/></svg>