<svg id="Layer_1" data-name="Layer 1" xmlns="http://www.w3.org/2000/svg" xmlns:xlink="http://www.w3.org/1999/xlink" viewBox="0 0 160.3 152.8"><defs><style>.cls-1{fill:url(#linear-gradient);}</style><linearGradient id="linear-gradient" x1="77.72" y1="6.98" x2="77.72" y2="145.82" gradientUnits="userSpaceOnUse"><stop offset="0" stop-color="#f3d22f"/><stop offset="0.07" stop-color="#e4cf37"/><stop offset="0.22" stop-color="#bec94c"/><stop offset="0.41" stop-color="#80be6e"/><stop offset="0.65" stop-color="#2baf9c"/><stop offset="0.75" stop-color="#06a9b0"/><stop offset="1" stop-color="#11868b"/></linearGradient></defs><title>Professional profile image placeholder</title><path class="cls-1" d="M105.54,117.7v22.76a139.22,139.22,0,0,1-38.05,5.36,144.17,144.17,0,0,1-55.18-11.29l-.17-.07V122.13a55.32,55.32,0,0,1,22.6-44.6,1.62,1.62,0,0,0,.18.19l.21.22a45,45,0,0,0,64.72,0l.21-.22a1.62,1.62,0,0,0,.18-.19,56.38,56.38,0,0,1,4.7,3.89,25.32,25.32,0,0,0,.6,36.28Zm-66-43,.22.21a39.53,39.53,0,0,0,55.42,0l.22-.21.18-.19a39.61,39.61,0,1,0-56.22,0Zm83.28,50a25.24,25.24,0,0,1-12.3-3.25v24.44l12.4-8.79,12.4,8.79V121.38a25.13,25.13,0,0,1-12.4,3.25Zm20.47-25.36a20.45,20.45,0,0,1-20.37,20.36h-.17a20.36,20.36,0,1,1,20.54-20.35ZM124.7,104.8l5.33-5,5.86-5.5-3.42-3.65-9.75,9.15-1.41,1.32-1.37-1.32-3.39-3.27-.86-.83-3.48,3.59.53.51,5.18,5,3,2.88.35.35Z"/></svg>