<svg id="Layer_1" data-name="Layer 1" xmlns="http://www.w3.org/2000/svg" xmlns:xlink="http://www.w3.org/1999/xlink" viewBox="0 0 478.3 454.8"><defs><style>.cls-1{fill:url(#linear-gradient);}</style><linearGradient id="linear-gradient" x1="239.15" y1="30.42" x2="239.15" y2="424.38" gradientUnits="userSpaceOnUse"><stop offset="0" stop-color="#f3d22f"/><stop offset="0.07" stop-color="#e4cf37"/><stop offset="0.22" stop-color="#bec94c"/><stop offset="0.41" stop-color="#80be6e"/><stop offset="0.65" stop-color="#2baf9c"/><stop offset="0.75" stop-color="#06a9b0"/><stop offset="1" stop-color="#11868b"/></linearGradient></defs><title>Talent profile image placeholder</title><path class="cls-1" d="M297,365.71l-7.44,43.42a396,396,0,0,1-107.68,15.12c-52.3,0-104.58-10.67-156.51-32l-.49-.19v-35A156.86,156.86,0,0,1,89,230.55a5,5,0,0,0,.5.53c.18.21.4.43.59.62a127.62,127.62,0,0,0,183.59,0c.18-.19.4-.41.59-.62a4.88,4.88,0,0,0,.49-.53A157.83,157.83,0,0,1,322.85,288l-1.66,3.37-71.82,10.43a7.75,7.75,0,0,0-4.3,13.23ZM102.69,222.39l.62.62a112.2,112.2,0,0,0,157.22,0c.22-.22.41-.4.62-.62a6.08,6.08,0,0,0,.5-.53,112.36,112.36,0,1,0-159.46,0C102.35,222.05,102.5,222.2,102.69,222.39Zm284.55,79.52-27-54.65-27,54.65a7.77,7.77,0,0,1-5.84,4.24l-60.31,8.76,43.64,42.54a7.76,7.76,0,0,1,2.23,6.87l-10.3,60.06L356.66,396a7.75,7.75,0,0,1,7.22,0l53.94,28.36-10.31-60.06a7.79,7.79,0,0,1,2.23-6.87l43.64-42.54-60.3-8.76A7.75,7.75,0,0,1,387.24,301.91Z"/></svg>